<?xml version="1.0" encoding="UTF-8" standalone="no"?>
<svg
   xmlns:dc="http://purl.org/dc/elements/1.1/"
   xmlns:cc="http://creativecommons.org/ns#"
   xmlns:rdf="http://www.w3.org/1999/02/22-rdf-syntax-ns#"
   xmlns:svg="http://www.w3.org/2000/svg"
   xmlns="http://www.w3.org/2000/svg"
   xmlns:sodipodi="http://sodipodi.sourceforge.net/DTD/sodipodi-0.dtd"
   xmlns:inkscape="http://www.inkscape.org/namespaces/inkscape"
   width="793.70081"
   height="1122.5197"
   viewBox="0 0 210 297"
   version="1.1"
   id="svg8"
   inkscape:version="1.0beta1 (fe3e306, 2019-09-17)"
   sodipodi:docname="artes.svg">
  <defs
     id="defs2" />
  <sodipodi:namedview
     units="px"
     id="base"
     pagecolor="#ffffff"
     bordercolor="#666666"
     borderopacity="1.0"
     inkscape:pageopacity="0.0"
     inkscape:pageshadow="2"
     inkscape:zoom="1"
     inkscape:cx="404.60683"
     inkscape:cy="685.03044"
     inkscape:document-units="px"
     inkscape:current-layer="layer1"
     inkscape:document-rotation="0"
     showgrid="false"
     inkscape:window-width="1920"
     inkscape:window-height="1057"
     inkscape:window-x="-8"
     inkscape:window-y="-8"
     inkscape:window-maximized="1" />
  <metadata
     id="metadata5">
    <rdf:RDF>
      <cc:Work
         rdf:about="">
        <dc:format>image/svg+xml</dc:format>
        <dc:type
           rdf:resource="http://purl.org/dc/dcmitype/StillImage" />
        <dc:title></dc:title>
      </cc:Work>
    </rdf:RDF>
  </metadata>
  <g
     inkscape:label="Camada 1"
     inkscape:groupmode="layer"
     id="layer1">
    <g
       id="g983"
       transform="translate(19.076141,86.385616)"
       inkscape:export-xdpi="99.699997"
       inkscape:export-ydpi="99.699997">
      <rect
         y="57.830357"
         x="25.324404"
         height="23.8125"
         width="127.37797"
         id="rect913"
         style="fill:#000000;fill-opacity:1;stroke:none;stroke-width:0.529167;stroke-linecap:round;stroke-linejoin:round" />
      <rect
         y="68.293488"
         x="27.441067"
         height="2.8862412"
         width="15.874326"
         id="rect915"
         style="fill:#ffffff;fill-opacity:1;stroke:none;stroke-width:0.529167;stroke-linecap:round;stroke-linejoin:round" />
      <rect
         style="fill:#ffffff;fill-opacity:1;stroke:none;stroke-width:0.529167;stroke-linecap:round;stroke-linejoin:round"
         id="rect915-7"
         width="15.874326"
         height="2.8862412"
         x="53.855923"
         y="68.293488" />
      <rect
         y="68.293488"
         x="80.270775"
         height="2.8862412"
         width="15.874326"
         id="rect915-7-6"
         style="fill:#ffffff;fill-opacity:1;stroke:none;stroke-width:0.529167;stroke-linecap:round;stroke-linejoin:round" />
      <rect
         style="fill:#ffffff;fill-opacity:1;stroke:none;stroke-width:0.529167;stroke-linecap:round;stroke-linejoin:round"
         id="rect915-9"
         width="15.874326"
         height="2.8862412"
         x="106.68562"
         y="68.293488" />
      <rect
         y="68.293488"
         x="133.10048"
         height="2.8862412"
         width="15.874326"
         id="rect915-7-0"
         style="fill:#ffffff;fill-opacity:1;stroke:none;stroke-width:0.529167;stroke-linecap:round;stroke-linejoin:round" />
    </g>
    <g
       style="overflow:visible"
       id="g879"
       transform="matrix(0.26458333,0,0,0.26458333,83.105733,99.866963)"
       inkscape:export-xdpi="99.699997"
       inkscape:export-ydpi="99.699997">
      <g
         id="g857">
        <path
           id="path833"
           d="m 167.078,125.534 c 0,45.216 -36.093,81.865 -80.619,81.865 -44.529,0 -80.624,-36.649 -80.624,-81.865 0,-45.209 36.095,-81.86 80.624,-81.86 44.526,0 80.619,36.651 80.619,81.86 z"
           fill="#FFFFFF"
           inkscape:connector-curvature="0" />
        <path
           id="path835"
           d="m 167.078,125.541 c 0,6.512 -1.971,12.993 -1.454,19.311 0.34,4.149 2.295,8.367 2.97,12.511 1.162,7.147 2.15,18.554 -8.247,18.059 7.018,8.784 -2.223,12.209 -9.177,14.712 -5.439,1.957 -4.425,1.434 -7.439,4.914 -2.692,3.11 -2.978,5.331 -6.756,7.731 -6.675,4.254 -16.273,4.916 -23.429,8.047 -7.788,3.411 -15.079,6.253 -21.454,-0.395 -10.275,5.839 -22.07,11.372 -28.708,-1.267 -4.651,0.367 -7.896,2.048 -12.562,-0.058 -5.485,-2.478 -6.642,-9.234 -10.746,-12.675 -4.327,-3.636 -7.941,-0.304 -12.84,-3.496 -3.989,-2.602 -3.49,-7.656 -6.79,-10.352 -2.728,-2.229 -7.002,-1.229 -9.902,-3.355 -6.178,-4.525 -4.622,-13.504 -0.148,-18.78 5.104,5.076 9.076,10.368 15.075,14.33 0.898,0.594 18.257,8.188 17.255,4.639 2.77,9.821 12.168,6.87 18.833,2.599 1.072,2.71 1.415,5.747 1.419,8.601 15.832,11.064 35.2,10.383 53.077,3.043 11.479,-4.714 22.27,-12.799 27.191,-24.611 5.085,-12.2 -4.294,-18.364 -3.514,-29.26 0.305,-4.266 5.519,-9.137 7.142,-13.41 2.005,-5.272 2.99,-11.09 2.309,-16.718 C 146.63,88.6 120.521,59.139 97.55,63.792 83.322,66.677 73.321,79.08 64.911,90.002 c 1.294,-1.684 0.867,-8.268 1.553,-10.618 1.275,-4.37 3.494,-8.409 5.89,-12.254 4.606,-7.38 11.045,-16.469 19.201,-20.229 19.535,-9.016 43.869,11.105 55.668,24.807 12.807,14.874 19.855,34.225 19.855,53.833 z"
           fill="#B2B2B2"
           inkscape:connector-curvature="0" />
        <path
           id="path837"
           d="m 167.078,125.534 c 0,12.231 -0.365,19.774 2.646,31.584 0.848,3.334 2.709,8.135 1.451,11.575 -0.447,1.207 -7.189,7.879 -7.583,5.393 1.325,8.346 1.58,13.645 -7.98,16.468 -3.817,1.126 -6.495,0.297 -8.86,2.595 -2.438,2.377 -1.515,6.67 -5.389,9.423 -5.086,3.617 -11.699,2.96 -17.08,4.506 -5.42,1.562 -3.219,1.79 -7.433,4.248 -5.763,3.368 -20.473,10.552 -24.914,1.704 -6.418,5.758 -15.356,9.596 -23.452,3.874 -2.82,-1.988 -3.433,-5.401 -6.599,-6.618 -1.857,-0.711 -5.963,1.108 -9.203,-0.205 -4.989,-2.022 -7.219,-7.005 -11.062,-9.781 -2.974,-2.14 -2.388,-1.728 -6.088,-2.909 C 26.647,194.566 18.933,193 19.881,180.572 7.275,181.267 5.422,174.402 6.984,163.738 8.978,150.128 5.837,139.264 5.837,125.536 c 0,-45.209 36.095,-81.86 80.624,-81.86 44.524,-0.002 80.617,36.649 80.617,81.858 z"
           stroke-width="5.2623"
           stroke="#000000"
           fill="none"
           inkscape:connector-curvature="0" />
        <path
           id="path839"
           d="m 66.319,86.867 c -1.607,-5.372 8.329,-18.885 11.252,-22.576 8.851,-11.167 32.092,-17.763 45.01,-11.307 5.687,-8.558 7.228,-22.115 -1.192,-29.482 -0.02,-0.017 -19.512,-17.052 -36.824,0.824 0,0 -12.096,-23.813 -31.98,-14.394 0,0 -20.218,13.758 -7.989,31.728 -1.419,-2.083 -13.85,7.829 -14.905,9.2 -3.777,4.895 -4.939,11.498 -3.737,17.443 2.502,12.384 10.973,21.437 23.939,14.952 0,0 14.015,30.043 13.958,11.453 -0.055,-16.276 2.464,-7.849 2.468,-7.841 z"
           stroke-width="4.3232"
           stroke="#FF0000"
           fill="#BF0000"
           inkscape:connector-curvature="0" />
        <g
           id="g845">
          <ellipse
             id="ellipse841"
             ry="12.277"
             rx="11.696"
             cy="110.334"
             cx="26.816999"
             stroke-width="5.2623"
             stroke="#FFBF00" />
          <ellipse
             id="ellipse843"
             ry="4.3779998"
             rx="4.0970001"
             cy="104.203"
             cx="20.965"
             fill="#FFFFFF" />
        </g>
        <g
           id="g851">
          <ellipse
             id="ellipse847"
             ry="12.279"
             rx="11.696"
             cy="111.504"
             cx="100.522"
             stroke-width="5.2623"
             stroke="#FFBF00" />
          <path
             id="path849"
             d="m 98.769,105.235 c 0,2.491 -1.771,4.516 -3.952,4.516 -2.186,0 -3.951,-2.024 -3.951,-4.516 0,-2.496 1.766,-4.516 3.951,-4.516 2.18,0 3.952,2.02 3.952,4.516 z"
             fill="#FFFFFF"
             inkscape:connector-curvature="0" />
        </g>
        <path
           id="path853"
           d="m 57.622,147.615 c -8.452,7.246 -16.172,22.693 -15.612,33.866 0.615,12.329 15.703,17.25 22.272,6.161 1.906,9.081 10.495,20.534 19.54,11.244 7.899,-8.113 8.68,-25.469 5.867,-35.673 -1.939,-7.055 -4.658,-11.845 -11.813,-13.348 -5.353,-1.124 -15.425,-3.987 -20.444,-1.781"
           stroke-width="3.7458"
           stroke="#FF0000"
           fill="#BF0000"
           inkscape:connector-curvature="0" />
        <path
           id="path855"
           d="m 82.95,148.341 c 0,10.655 -11.521,19.294 -25.728,19.294 -6.117,0 -25.778,-12.293 -29.625,-4.885 -4.274,-19.007 11.184,-33.707 29.625,-33.707 14.207,0 25.728,8.644 25.728,19.298 z"
           stroke-width="3.8972"
           stroke="#8F0000"
           fill="#FF7F00"
           inkscape:connector-curvature="0" />
      </g>
    </g>
    <text
       xml:space="preserve"
       style="font-style:normal;font-variant:normal;font-weight:normal;font-stretch:normal;font-size:16.7934px;line-height:1.25;font-family:'Faster One';-inkscape-font-specification:'Faster One Normal';font-variant-ligatures:normal;font-variant-caps:normal;font-variant-numeric:normal;font-variant-east-asian:normal;letter-spacing:0px;word-spacing:0px;fill:#ff7f00;fill-opacity:1;stroke:none;stroke-width:0.264583"
       x="69.887756"
       y="163.24969"
       id="text883"
       inkscape:export-xdpi="99.699997"
       inkscape:export-ydpi="99.699997"><tspan
         sodipodi:role="line"
         id="tspan881"
         x="69.887756"
         y="163.24969"
         style="font-style:normal;font-variant:normal;font-weight:normal;font-stretch:normal;font-size:16.7934px;font-family:'Faster One';-inkscape-font-specification:'Faster One Normal';font-variant-ligatures:normal;font-variant-caps:normal;font-variant-numeric:normal;font-variant-east-asian:normal;fill:#ff7f00;fill-opacity:1;stroke-width:0.264583">chicken</tspan></text>
    <text
       inkscape:export-ydpi="98.018051"
       inkscape:export-xdpi="98.018051"
       xml:space="preserve"
       style="font-style:normal;font-variant:normal;font-weight:normal;font-stretch:normal;font-size:13.1217px;line-height:1.25;font-family:'Faster One';-inkscape-font-specification:'Faster One Normal';font-variant-ligatures:normal;font-variant-caps:normal;font-variant-numeric:normal;font-variant-east-asian:normal;letter-spacing:0px;word-spacing:0px;fill:#ff7f00;fill-opacity:1;stroke:none;stroke-width:0.264582"
       x="88.224281"
       y="183.92525"
       id="text887"><tspan
         sodipodi:role="line"
         id="tspan893"
         x="88.224281"
         y="183.92525">start</tspan></text>
    <text
       inkscape:export-ydpi="98.018051"
       inkscape:export-xdpi="98.018051"
       id="text887-3"
       y="201.13913"
       x="79.611481"
       style="font-style:normal;font-variant:normal;font-weight:normal;font-stretch:normal;font-size:13.1217px;line-height:1.25;font-family:'Faster One';-inkscape-font-specification:'Faster One Normal';font-variant-ligatures:normal;font-variant-caps:normal;font-variant-numeric:normal;font-variant-east-asian:normal;letter-spacing:0px;word-spacing:0px;fill:#ff7f00;fill-opacity:1;stroke:none;stroke-width:0.264582"
       xml:space="preserve"><tspan
         y="201.13913"
         x="79.611481"
         id="tspan893-4"
         sodipodi:role="line"
         style="fill:#ff7f00;fill-opacity:1;stroke-width:0.264582">credits</tspan></text>
    <text
       inkscape:export-ydpi="98.018051"
       inkscape:export-xdpi="98.018051"
       xml:space="preserve"
       style="font-style:normal;font-variant:normal;font-weight:normal;font-stretch:normal;font-size:13.1217px;line-height:1.25;font-family:'Faster One';-inkscape-font-specification:'Faster One Normal';font-variant-ligatures:normal;font-variant-caps:normal;font-variant-numeric:normal;font-variant-east-asian:normal;letter-spacing:0px;word-spacing:0px;fill:#ff7f00;fill-opacity:1;stroke:none;stroke-width:0.264582"
       x="91.640968"
       y="218.075"
       id="text887-3-7"><tspan
         style="fill:#ff7f00;fill-opacity:1;stroke-width:0.264582"
         sodipodi:role="line"
         id="tspan893-4-0"
         x="91.640968"
         y="218.075">menu</tspan></text>
    <rect
       inkscape:export-ydpi="99.699997"
       inkscape:export-xdpi="99.699997"
       y="229.14722"
       x="45.194294"
       height="1.587496"
       width="127.37797"
       id="rect861"
       style="fill:#ff7f00;fill-opacity:1;stroke:none;stroke-width:0.529;stroke-linecap:round;stroke-linejoin:round;stroke-miterlimit:4;stroke-dasharray:none" />
  </g>
</svg>
